<?xml version="1.0" encoding="utf-8"?>
<!-- Generator: Adobe Illustrator 24.2.3, SVG Export Plug-In . SVG Version: 6.00 Build 0)  -->
<svg version="1.1" xmlns="http://www.w3.org/2000/svg" xmlns:xlink="http://www.w3.org/1999/xlink" x="0px" y="0px"
	 viewBox="0 0 640 640" style="enable-background:new 0 0 640 640;" xml:space="preserve">
<g id="Layer_1_copy">
</g>
<g id="Layer_1">
	<path d="M539.6,153.7L354.7,46.9c-10.2-5.8-22-8.9-34.2-8.9c-12.1,0-23.9,3.1-34.2,8.8L101.6,153.6c-21.2,12.2-34.4,35.1-34.4,59.7
		v213.1c0,24.6,13.2,47.5,34.4,59.7l49.2,28.4l0.8,0.4c25.6,12.7,58.3,33.1,72.7,41.4l61.8,36.5c10.5,6,22.3,9.2,34.4,9.2
		c12,0,23.9-3.2,34.4-9.2l184.8-106.7c21.1-12.3,34.3-35.2,34.3-59.6V213.4C574,188.8,560.8,165.9,539.6,153.7z M544,426.5
		c0,13.8-7.4,26.7-19.4,33.7L339.9,566.8c-5.9,3.4-12.6,5.2-19.4,5.2c-6.7,0-13.5-1.8-19.4-5.2l-61.7-36.5c-9.2-5.2-4.7-7-1.7-8
		c12.3-4.3,14.8-5.2,27.9-12.7c1.4-0.8,3.2-0.5,4.6,0.4l47.4,28.1c1.7,1,4.1,1,5.7,0L508,431.5c1.7-1,2.8-3,2.8-5V213.3
		c0-2.1-1.1-4-2.9-5.1L323.3,101.7c-1.7-1-4-1-5.7,0L133.1,208.3c-1.8,1-2.9,3-2.9,5.1v213.1c0,2,1.1,4,2.9,4.9l50.6,29.2
		c27.5,13.7,44.3-2.4,44.3-18.7V231.5c0-3,2.4-5.3,5.4-5.3h23.4c2.9,0,5.4,2.3,5.4,5.3V442c0,36.6-20,57.6-54.7,57.6
		c-10.7,0-19.1,0-42.5-11.6l-48.4-27.9c-12-6.9-19.4-19.8-19.4-33.7V213.3c0-13.8,7.4-26.8,19.4-33.7L301.1,73
		c11.7-6.6,27.2-6.6,38.8,0l184.7,106.7c12,6.9,19.4,19.8,19.4,33.7V426.5z M367.8,336.8c-50.5-5-81.8-16.2-81.8-56.6
		c0-37.3,31.4-59.5,84.1-59.5c59.2,0,88.5,20.5,92.2,64.6c0.1,1.5-0.4,3-1.4,4.1c-1,1.1-2.4,1.7-3.9,1.7h-24c-2.5,0-4.7-1.8-5.2-4.2
		c-5.8-25.6-19.8-33.8-57.7-33.8c-42.5,0-47.4,14.8-47.4,25.9c0,13.4,5.8,17.3,63.2,24.9c56.7,7.5,83.7,18.1,83.7,58
		c0,40.2-33.6,63.3-92,63.4c-80.9,0-97.8-37.1-97.8-68.2c0-2.9,2.3-5.3,5.3-5.3H309c2.7,0,4.9,1.9,5.3,4.5
		c3.6,24.3,14.3,36.6,63.2,36.6c38.9,0,55.5-8.8,55.5-29.4C433,351.6,428.3,342.7,367.8,336.8z"/>
</g>
</svg>
