<?xml version="1.0" encoding="utf-8"?>
<!-- Generator: Adobe Illustrator 24.2.3, SVG Export Plug-In . SVG Version: 6.00 Build 0)  -->
<svg version="1.1" id="Layer_2_1_" xmlns="http://www.w3.org/2000/svg" xmlns:xlink="http://www.w3.org/1999/xlink" x="0px" y="0px"
	 viewBox="0 0 640 640" style="enable-background:new 0 0 640 640;" xml:space="preserve">
<g>
	<g>
		<path d="M448.6,272.2l-13.7,70.6c33.4,0,62.1,4.8,70.1-36.3C512.4,268.1,486.8,272.2,448.6,272.2z"/>
		<path d="M320,151.7C143.3,151.7,0,227,0,320s143.3,168.3,320,168.3S640,413,640,320S496.7,151.7,320,151.7z M233,350.4
			c-23.6,22.1-49.1,19.1-90.2,19.1l-8.7,44.8H97.4l32.7-168.7h70.7c21.2,0,36.8,5.5,46.5,16.7C265.9,283.7,259.1,326.4,233,350.4z
			 M340.4,369.3c15.4-79.4,18.3-86,12.7-92c-5.4-5.8-17.7-4.6-47.4-4.6l-18.8,96.6h-36.5l32.7-168.6h36.5l-8.7,44.8
			c31.5,0,60.7-2.3,74.8,10.7c14.8,13.6,7.7,31-8.3,113.1H340.4z M519.9,350.4c-23.1,21.6-47,19.1-90.2,19.1l-8.7,44.8h-36.8
			L417,245.6h70.7c21.2,0,36.8,5.5,46.5,16.7C552.8,283.7,546,326.4,519.9,350.4z"/>
		<path d="M161.8,272.2l-13.7,70.6c34.3,0,62.2,4.2,70.1-36.3C225.6,268.1,199.8,272.2,161.8,272.2z"/>
	</g>
</g>
</svg>
