<?xml version="1.0" encoding="utf-8"?>
<!-- Generator: Adobe Illustrator 24.2.3, SVG Export Plug-In . SVG Version: 6.00 Build 0)  -->
<svg version="1.1" id="Layer_1" xmlns="http://www.w3.org/2000/svg" xmlns:xlink="http://www.w3.org/1999/xlink" x="0px" y="0px"
	 viewBox="0 0 1024 1024" style="enable-background:new 0 0 1024 1024;" xml:space="preserve">
<g>
	<path d="M724.4,673.4c-3.2,12.2-10.6,18.3-22.1,18.3H439c-7.1,0-12.8-2.7-17.3-8.2c-4.5-5.4-6.1-11.7-4.8-18.7L470.6,405H269
		l-67.4,325.2c-3.2,15.4-2.9,30.1,1,44.2c3.8,14.1,10.2,26.8,19.2,38c9,11.2,20.2,20,33.6,26.4c13.5,6.4,27.9,9.6,43.2,9.6h500.7
		c26.9,0,50.6-8.3,71.1-25c20.5-16.7,33.3-38.4,38.4-65.3l26.9-133.6H734L724.4,673.4z"/>
	<path d="M1002.1,259.3c-4.5-16-11.9-30.3-22.1-42.8c-10.3-12.5-22.9-22.4-38-29.8c-15.1-7.4-31.2-11.1-48.5-11.1H141.1
		c-26.9,0-50.6,8.3-71.1,25c-20.5,16.7-33.3,38.4-38.4,65.3l-13.3,66.3l751.3,0c7,0,12.8,2.7,17.3,8.2c4.5,5.5,6.1,11.7,4.8,18.7
		l-8.6,40.4h201.8l18.3-90.3C1006.9,291.9,1006.6,275.3,1002.1,259.3z"/>
</g>
</svg>
